/* XPM */
static const char *appicon[]={
"16 16 111 2",
"Qt c #000000",
".# c #020202",
".s c #020304",
"#h c #0c0e0e",
"#N c #111518",
".q c #121214",
"#r c #151d1e",
".i c #1b1e21",
"#S c #1d2125",
".X c #202222",
"#O c #202428",
".r c #212322",
"#G c #343e46",
".c c #394047",
"#H c #424d56",
".H c #4b535d",
".I c #51595a",
".a c #515b65",
"#R c #56636f",
".D c #5f6c77",
"#A c #616f7b",
".p c #64707d",
".b c #687683",
".t c #69787c",
"#z c #697d8a",
".E c #6e7c8a",
"#Q c #6e8090",
"#g c #727c7c",
"#P c #728495",
"#M c #748697",
".d c #8396a5",
".h c #8494a2",
".j c #8599a5",
"#s c #869a9d",
".z c #96a9bd",
".P c #97adc2",
".G c #9aadc1",
".o c #9db3c9",
".R c #9eb5cb",
"#q c #9fb5c3",
".Q c #9fb6cc",
".F c #a1b6cb",
".8 c #a3bfcf",
"#F c #a7c2d9",
".3 c #aac2da",
".S c #abc3da",
"#E c #acc5dd",
"#L c #afc7df",
".4 c #afc8e0",
"#x c #b0c7dc",
"#c c #b1c9e1",
".A c #b1cce0",
"#o c #b2cae3",
"#n c #b2cce5",
"#i c #b5cdd2",
"#b c #b5cfe8",
"#d c #b5d0e9",
".2 c #b6cfe9",
"#I c #b6d1eb",
".y c #b7d0ea",
"#K c #b7d2eb",
".O c #b7d2ec",
"#y c #b7d3eb",
"#w c #b8d2eb",
".n c #b9d2ec",
".W c #bad3ec",
".5 c #bbd6f0",
".g c #bbd7f1",
".T c #bdd7f1",
"#p c #bdd9f1",
"#J c #bdd9f3",
"#m c #bddaf4",
".B c #c2dbec",
"#e c #c2def8",
"#v c #c3e2fb",
".e c #c4e1f9",
"#a c #c4e2fb",
".1 c #c5e3fb",
".f c #c5e3fc",
".U c #c6e3fc",
".x c #c6e4fc",
".m c #c6e5fc",
"#B c #c6e6fd",
".V c #c8e4fc",
".N c #c8e7fd",
"#D c #cae9fd",
"#l c #cdecfd",
"#C c #cfefff",
"#f c #d1f0fa",
".k c #d4f1fe",
".M c #d4f2fe",
".6 c #d7f3fe",
".w c #d8f4fe",
".l c #d9f4fe",
".7 c #dcf4fe",
".0 c #dcf6fe",
"#u c #def8ff",
".C c #e0f4fe",
".L c #e4fbff",
"#j c #e4fcff",
".u c #eafbff",
".9 c #ebfafb",
".Z c #ecfeff",
"#t c #edfdff",
".v c #effeff",
".Y c #f0feff",
"#. c #f3ffff",
"#k c #f5feff",
".K c #f7ffff",
"## c #f9ffff",
".J c #fcffff",
"QtQtQtQtQtQtQtQtQtQtQtQtQtQtQtQt",
"Qt.#.a.b.cQtQtQtQtQtQtQtQtQtQtQt",
"Qt.d.e.f.g.h.iQtQtQtQtQtQtQtQtQt",
"Qt.j.k.l.m.n.o.p.qQt.r.sQtQtQtQt",
"Qt.t.u.v.w.x.y.z.A.B.C.D.E.F.G.H",
"Qt.I.J.K.L.M.N.O.P.Q.R.S.T.U.V.W",
"Qt.X.J.K.Y.Z.0.1.2.3.4.5.V.6.7.8",
"QtQt.9#.##.J.0#a#b#c#d#e#f#g#hQt",
"QtQt#i#j.J#k#l#m#n#o#p#q#rQtQtQt",
"QtQt#s.k#t#u#v#w#x#y#zQtQtQtQtQt",
"QtQt#A#B#C#D.g#E#F#GQtQtQtQtQtQt",
"QtQt#H#I#J#K#L#M#NQtQtQtQtQtQtQt",
"QtQt#O#P#Q#R#SQtQtQtQtQtQtQtQtQt",
"QtQtQtQtQtQtQtQtQtQtQtQtQtQtQtQt",
"QtQtQtQtQtQtQtQtQtQtQtQtQtQtQtQt",
"QtQtQtQtQtQtQtQtQtQtQtQtQtQtQtQt"};
