/* XPM */
static const  char *bezier[]={
"16 16 2 1",
". c None",
"# c #ffff00",
"................",
".............#..",
".............#..",
".............#..",
".............#..",
"..####.......#..",
"..#..##......#..",
".#....#......#..",
".#....##....##..",
".#.....#....#...",
"##.....##..##...",
"#.......####....",
"#...............",
"#...............",
"#...............",
"#..............."};
