/* XPM */
static const char *bspline[]={
"16 16 2 1",
". c None",
"# c #ffff00",
"...............#",
"..............##",
"..............#.",
"......####...##.",
".....#...##..#..",
".....#....#..#..",
"..#..#....##.#..",
".###.##....#.#..",
"##.#..#....#.#..",
"#..####....###..",
"#...##......##..",
"#...............",
"#...............",
"#...............",
"##..............",
"................"};
