/* XPM */
static const char *circle[]={
"16 16 3 1",
". c None",
"a c #ff0000",
"# c #ffff00",
"................",
"................",
"......#####.....",
"....##.....##...",
"...##.......##..",
"...#.........#..",
"..#.....a.....#.",
"..#.....a.....#.",
"..#...aaaaa...#.",
"..#.....a.....#.",
"..#.....a.....#.",
"...#.........#..",
"...##.......##..",
"....##.....##...",
"......#####.....",
"................"};
