/* XPM */
static const char *cone[]={
"16 16 4 1",
". c None",
"b c #808000",
"a c #c0c000",
"# c #ffff00",
"................",
"................",
".......##.......",
".......#........",
"......#a#.......",
".....#aaa#......",
".....#a#a#......",
"....#aa#aa#.....",
"...#aaa#aaa#....",
"...#aaa#aaa#....",
"..#aaa##aaaa#...",
".#aaa#b#aaaaa#..",
".##aaa#aaaaa##..",
".##aaaaaaaaa##..",
"...#########....",
"................"};
