/* XPM */
static const char *ellipse[]={
"16 16 3 1",
". c None",
"a c #ff0000",
"# c #ffff00",
"................",
"................",
"................",
"....#######.....",
"...##......##...",
"..#....aa....#..",
".#.....aa.....#.",
".#...aaaaaa...#.",
".#.....aa.....#.",
"..#....aa....#..",
"...##......##...",
".....#######....",
"................",
"................",
"................",
"................"};
