/* XPM */
static const char *extruded[]={
"16 16 3 1",
". c None",
"a c #ff0000",
"# c #ffff00",
"............#...",
".........###....",
"......###.......",
"..a###..........",
"...aa..........#",
"....aa........#.",
".....a.......#..",
".....a.....##...",
".....aa...#.....",
".....#####aa....",
"...##.......a...",
".##.........aa..",
"#............a..",
"...........####.",
"........###.....",
".......#........"};
