/* XPM */
static const char *hyperbola[]={
"16 16 2 1",
". c None",
"# c #ffff00",
"................",
"#.............#.",
"##...........##.",
".#..........##..",
"..#.........#...",
"..##.......##...",
"...##.....##....",
".....##.##......",
"......###.......",
"......##........",
"......#.#.......",
".....##.##......",
".....#...##.....",
"....##....##....",
"..##........###.",
".##...........#."};
