/* XPM */
static const char *parabola[]={
"16 16 2 1",
". c None",
"# c #ffff00",
"................",
".............#..",
"............##..",
"..........##....",
".......###......",
"......##........",
".....##.........",
".....#..........",
".....##.........",
"......#.........",
".......#........",
"........##......",
"..........###...",
".............##.",
"................",
"................"};
