/* XPM */
static const char *pipe_xpm[]={
"16 16 3 1",
". c None",
"a c #00ff00",
"# c #ffff00",
"................",
"..........###...",
".........##.##..",
"........##...#..",
"......#####.##..",
"....###...####..",
"...##aaaaa.##...",
"..##..aa..##....",
"..#..aa.a#......",
".##..a..#.......",
".#...a..#.......",
".#####..#.......",
".##..###........",
".#....##........",
".#....##........",
".######........."};
