/* XPM */
static const char *plane[]={
"16 16 2 1",
". c None",
"# c #ffff00",
"................",
"......#.........",
".....#.#........",
"....#...#.......",
"...#.....#......",
"..#.......#.....",
".#.........#....",
"..#.........#...",
"...#.........#..",
"....#.........#.",
".....#.........#",
"......#.......#.",
".......#.....#..",
"........#...#...",
".........#.#....",
"..........#....."};
