/* XPM */
static const char *reflect[]={
"16 16 3 1",
". c None",
"a c #ff0000",
"# c #ffff00",
".......##.......",
".......##.......",
".......##.......",
".....a.##.a.....",
"....aa.##.a.....",
"....aa.##.aa....",
"...a.a.##.aa....",
"...a.a.##.a.a...",
"..a..a.##.a.a...",
"..a..a.##.a..a..",
".a...a.##.a..a..",
".a...a.##.a...a.",
"aaaaaa.##.aaaaaa",
".......##.......",
".......##.......",
".......##......."};
