/* XPM */
static const char *revolved[]={
"16 16 4 1",
". c None",
"b c #0058c0",
"a c #ff0000",
"# c #ffff00",
"........##......",
".aa.....##......",
"..aa....#.......",
"....a...#.......",
"....a...#bbb....",
"....a...#..bb...",
"...aa...#...b...",
"..aa....#...b...",
".aa.bbb.#...b...",
".a.....bbbbbb...",
".a......#.......",
".aa.....#.......",
"..aaaaaa#.......",
"........#.......",
"........#.......",
"........#......."};
