/* XPM */
static const char *rotate_xpm[]={
"16 16 3 1",
". c None",
"# c #ff0000",
"a c #ffff00",
".......#........",
".....###........",
"....##a##.......",
"...####a##......",
".......a.##.....",
".......a..##....",
".......a...#....",
".......a...#....",
".......a...#....",
".......a...#....",
".#.....a..##....",
"..#####a##......",
".......a........",
".......a........",
".......a........",
"................"};
