/* XPM */
static const char *ruled[]={
"16 16 4 1",
". c None",
"# c #0058c0",
"b c #ff0000",
"a c #ffff00",
".....####.......",
"...###..#.......",
"...a...##.###...",
"..a....#.#.a#...",
"..a....##.a..#..",
".aaa.....a...#..",
".a..aa...a...#..",
".a....aaa....##a",
"a......aaa....a.",
"abb....a..aa.a..",
"abbb..a.....aa..",
"...b.a......aa..",
"...bba.....a....",
"....bb...bba....",
".....bbbbb......",
"................"};
