/* XPM */
static const char *scale[]={
"16 16 2 1",
". c None",
"# c #ff0000",
"..........#.....",
"..........#.....",
"..........#.....",
"..........#.....",
".....###########",
"..........#.....",
"..........#.....",
"..........#.....",
"....#.....#.....",
"....#.....#.....",
"....#...........",
".#######........",
"....#...........",
"....#...........",
"....#...........",
"................"};
