/* XPM */
static const char *sphere[]={
"16 16 2 1",
". c None",
"# c #ffff00",
"................",
"......##........",
".....#####......",
"....##.##.##....",
"...#.#..#...#...",
"...###########..",
"..##.#..#...##..",
".##..#..#....##.",
".##..#..#....##.",
"..##.#..#...##..",
"..###########...",
"...#.#..#...#...",
"....###.#.##....",
"......#####.....",
"......##........",
"................"};
