/* XPM */
static const char *torus[]={
"16 16 2 1",
". c None",
"# c #ffff00",
"................",
"................",
"................",
"................",
"................",
"....#######.....",
"..####.....####.",
".##.########..##",
".#....#...#....#",
".######.######.#",
".##..##...##.###",
"..#############.",
"......#####.....",
"................",
"................",
"................"};
