/* XPM */
static const char *translate[]={
"16 16 2 1",
". c None",
"# c #ff0000",
"................",
"................",
"................",
"................",
"................",
"................",
"................",
"........######..",
"###############.",
"........######..",
"................",
"................",
"................",
"................",
"................",
"................"};
